Coordinates
version=1
nRows=10
nColumns=38
inDegrees=yes

Units are S.I. units (second, meters, Newtons, ...)
Angles are in degrees.

endheader
time	pelvis_tilt	pelvis_list	pelvis_rotation	pelvis_tx	pelvis_ty	pelvis_tz	hip_flexion_r	hip_adduction_r	hip_rotation_r	knee_angle_r	ankle_angle_r	subtalar_angle_r	mtp_angle_r	hip_flexion_l	hip_adduction_l	hip_rotation_l	knee_angle_l	ankle_angle_l	subtalar_angle_l	mtp_angle_l	lumbar_extension	lumbar_bending	lumbar_rotation	arm_flex_r	arm_add_r	arm_rot_r	elbow_flex_r	pro_sup_r	wrist_flex_r	wrist_dev_r	arm_flex_l	arm_add_l	arm_rot_l	elbow_flex_l	pro_sup_l	wrist_flex_l	wrist_dev_l
      4.39500000	     -3.43710258	     -5.33011877	     85.91646917	     -0.22511318	      1.08874339	     -0.60904189	     28.63572814	      0.22507074	      2.53275320	    -21.47824513	     -1.35184227	      0.00000000	      0.00000000	     -4.25693858	      7.83958523	     -5.04237972	    -73.38832467	    -14.66530688	      0.00000000	      0.00000000	    -15.16172159	      0.00150468	    -12.01050890	      0.00000000	      0.00000000	      0.00000000	     90.00000000	     90.00000000	      0.00000000	      0.00000000	      0.00000000	      0.00000000	      0.00000000	     90.00000000	     90.00000000	      0.00000000	      0.00000000
      4.40000000	     -3.08680725	     -5.50722915	     85.87472355	     -0.22449740	      1.08379401	     -0.60750005	     29.27529625	      0.81977037	      2.60364301	    -23.98212231	     -0.66830054	      0.00000000	      0.00000000	     -2.85137416	      6.98668213	     -5.69493856	    -76.33153760	    -14.14988951	      0.00000000	      0.00000000	    -15.20962450	      0.35579914	    -11.38409970	      0.00000000	      0.00000000	      0.00000000	     90.00000000	     90.00000000	      0.00000000	      0.00000000	      0.00000000	      0.00000000	      0.00000000	     90.00000000	     90.00000000	      0.00000000	      0.00000000
      4.40500000	     -2.70443258	     -5.64556184	     85.82465454	     -0.22393165	      1.07913185	     -0.60580485	     29.95250784	      1.46629404	      2.72080589	    -26.67167879	      0.24517187	      0.00000000	      0.00000000	     -1.47451550	      6.09464282	     -6.28682544	    -79.17914961	    -13.60539938	      0.00000000	      0.00000000	    -15.31929417	      0.73068229	    -10.72836330	      0.00000000	      0.00000000	      0.00000000	     90.00000000	     90.00000000	      0.00000000	      0.00000000	      0.00000000	      0.00000000	      0.00000000	     90.00000000	     90.00000000	      0.00000000	      0.00000000
      4.41000000	     -2.29732978	     -5.73678416	     85.76976036	     -0.22341635	      1.07474612	     -0.60404255	     30.63774562	      2.14989753	      2.88240714	    -29.47656137	      1.37734450	      0.00000000	      0.00000000	     -0.12773296	      5.17825964	     -6.80995221	    -81.92907708	    -13.05323067	      0.00000000	      0.00000000	    -15.49329745	      1.11811560	    -10.04880120	      0.00000000	      0.00000000	      0.00000000	     90.00000000	     90.00000000	      0.00000000	      0.00000000	      0.00000000	      0.00000000	      0.00000000	     90.00000000	     90.00000000	      0.00000000	      0.00000000
      4.41500000	     -1.87381907	     -5.77956032	     85.71296269	     -0.22291817	      1.07055569	     -0.60227910	     31.29188926	      2.85344760	      3.07938297	    -32.31361267	      2.70286632	      0.00000000	      0.00000000	      1.19169432	      4.25181668	     -7.25801170	    -84.58004819	    -12.50985586	      0.00000000	      0.00000000	    -15.72951713	      1.50959155	     -9.35040506	      0.00000000	      0.00000000	      0.00000000	     90.00000000	     90.00000000	      0.00000000	      0.00000000	      0.00000000	      0.00000000	      0.00000000	     90.00000000	     90.00000000	      0.00000000	      0.00000000
      4.42000000	     -1.44266506	     -5.77937033	     85.65647307	     -0.22238349	      1.06646092	     -0.60053854	     31.86964070	      3.55896390	      3.29642429	    -35.09355604	      4.18608531	      0.00000000	      0.00000000	      2.49039493	      3.32834480	     -7.62674292	    -87.13030359	    -11.98599189	      0.00000000	      0.00000000	    -16.02156904	      1.89706698	     -8.63719003	      0.00000000	      0.00000000	      0.00000000	     90.00000000	     90.00000000	      0.00000000	      0.00000000	      0.00000000	      0.00000000	      0.00000000	     90.00000000	     90.00000000	      0.00000000	      0.00000000
      4.42500000	     -1.01246181	     -5.74638877	     85.60206713	     -0.22176376	      1.06239118	     -0.59880829	     32.32515955	      4.24955675	      3.51406087	    -37.72887796	      5.78537497	      0.00000000	      0.00000000	      3.77807873	      2.41893281	     -7.91404635	    -89.57648535	    -11.48657253	      0.00000000	      0.00000000	    -16.35965492	      2.27387204	     -7.91177101	      0.00000000	      0.00000000	      0.00000000	     90.00000000	     90.00000000	      0.00000000	      0.00000000	      0.00000000	      0.00000000	      0.00000000	     90.00000000	     90.00000000	      0.00000000	      0.00000000
      4.43000000	     -0.59090461	     -5.69230522	     85.55160255	     -0.22104175	      1.05833276	     -0.59706372	     32.61861182	      4.91127886	      3.71160296	    -40.14174650	      7.45716990	      0.00000000	      0.00000000	      5.06617089	      1.53220778	     -8.11994730	    -91.91295767	    -11.01142703	      0.00000000	      0.00000000	    -16.73168992	      2.63540299	     -7.17504018	      0.00000000	      0.00000000	      0.00000000	     90.00000000	     90.00000000	      0.00000000	      0.00000000	      0.00000000	      0.00000000	      0.00000000	     90.00000000	     90.00000000	      0.00000000	      0.00000000
      4.43500000	     -0.18378719	     -5.62745105	     85.50741185	     -0.22024364	      1.05433382	     -0.59529402	     32.72177017	      5.53424755	      3.87048409	    -42.27085791	      9.15927526	      0.00000000	      0.00000000	      6.36618772	      0.67408427	     -8.24643189	    -94.13170544	    -10.55648126	      0.00000000	      0.00000000	    -17.12451723	      2.97943399	     -6.42599690	      0.00000000	      0.00000000	      0.00000000	     90.00000000	     90.00000000	      0.00000000	      0.00000000	      0.00000000	      0.00000000	      0.00000000	     90.00000000	     90.00000000	      0.00000000	      0.00000000
      4.44000000	      0.20619533	     -5.55929214	     85.47229334	     -0.21942888	      1.05048951	     -0.59351451	     32.62118370	      6.11272302	      3.97739350	    -44.07626154	     10.85328434	      0.00000000	      0.00000000	      7.68820106	     -0.15214423	     -8.29722657	    -96.22279755	    -10.11524880	      0.00000000	      0.00000000	    -17.52503346	      3.30595433	     -5.66176345	      0.00000000	      0.00000000	      0.00000000	     90.00000000	     90.00000000	      0.00000000	      0.00000000	      0.00000000	      0.00000000	      0.00000000	     90.00000000	     90.00000000	      0.00000000	      0.00000000
